<svg width="34" height="34" viewBox="0 0 34 34" fill="none" xmlns="http://www.w3.org/2000/svg">
<path d="M33.2748 16.64C33.2748 25.8285 25.8259 33.2783 16.6366 33.2783C14.1163 33.2801 11.6286 32.7087 9.36175 31.6072C7.09493 30.5057 5.10833 28.903 3.55231 26.9204C5.12327 25.0542 7.05463 23.874 9.72736 24.0952C10.4259 24.1541 11.1369 24.0818 11.8389 24.1068C13.3376 24.1621 14.6936 23.7018 15.9541 22.9542C18.0532 21.7142 19.5117 19.8685 20.7464 17.8158C21.1032 17.2252 21.0283 16.9942 20.2763 17.0022C17.5331 17.0317 14.7899 17.0254 12.0468 17.0156C7.53279 17.0025 4.37332 19.0618 2.56834 23.1933C2.36127 23.6667 2.18865 24.1545 2.05182 24.6527C0.701606 22.1982 -0.00431912 19.4414 1.98821e-05 16.64C1.98821e-05 7.45159 7.44893 4.10791e-06 16.6375 4.10791e-06C19.4053 -0.00194189 22.1298 0.687536 24.5635 2.00583C26.9973 3.32411 29.0632 5.22945 30.5736 7.54883C25.2157 7.52742 19.8588 7.32581 14.5072 7.62377C10.0664 7.86998 6.97078 12.1671 8.03325 16.6989C9.26433 14.9147 10.9335 14.5659 12.8015 14.5775C16.4376 14.6016 20.0729 14.5383 23.709 14.5445C25.3273 14.5445 26.7867 14.0905 28.0802 13.1511C29.4594 12.1511 30.7413 11.036 31.6762 9.58283C31.6825 9.57473 31.6887 9.56493 31.6941 9.55693C32.7385 11.7719 33.2784 14.1911 33.2748 16.64Z" fill="#7535FD"/>
</svg>
