<svg width="32" height="27" viewBox="0 0 32 27" fill="none" xmlns="http://www.w3.org/2000/svg">
<path d="M0.132812 6.12233C0.132812 4.42638 0.628799 2.97841 1.6694 1.9375L3.47939 3.74749C1.4647 5.75481 3.22465 11.9956 8.9605 17.7377C14.6962 23.4789 20.9409 25.2362 22.9543 23.2254L24.7643 25.0354C21.3686 28.4311 13.6335 26.0216 7.15992 19.546C2.66875 15.0529 0.132812 9.95564 0.132812 6.12249V6.12233Z" fill="#009A46"/>
<path d="M11.5461 26.5954C9.84998 26.5954 8.40201 26.0994 7.35938 25.0588L9.16937 23.2486C11.1801 25.2595 17.4209 23.5004 23.1624 17.7601C28.9036 12.0205 30.6599 5.77975 28.649 3.76898L30.459 1.95898C33.8566 5.35466 31.445 13.0889 24.9685 19.5634C20.4764 24.0611 15.3791 26.5954 11.5459 26.5954H11.5461Z" fill="#FF5805"/>
<path d="M25.5722 16.9734C24.4731 13.8096 22.2294 10.4289 19.2513 7.45286C12.7766 0.976163 5.04238 -1.4346 1.6467 1.96327C1.4064 2.20562 1.61455 2.80513 2.1143 3.30363C2.61389 3.80338 3.21262 4.00981 3.45387 3.7695C5.46668 1.75857 11.7075 3.51774 17.4468 9.25893C20.1618 11.974 22.1859 15.0059 23.1606 17.8115C24.0157 20.272 23.9318 22.2556 22.9363 23.251C22.6941 23.4913 22.9043 24.0929 23.4021 24.5904C23.8999 25.0883 24.5004 25.2976 24.7437 25.0552C26.4831 23.3158 26.778 20.4415 25.5722 16.9732V16.9734Z" fill="#F5AFCB"/>
<path d="M30.4601 1.96274C28.7172 0.219569 25.8464 -0.0756389 22.3743 1.13107C19.2125 2.22846 15.8299 4.47499 12.8538 7.45044C6.37898 13.9251 3.96869 21.6592 7.36421 25.0569C7.60656 25.2972 8.20607 25.09 8.70472 24.5919C9.20432 24.0944 9.41263 23.493 9.17044 23.2506C7.15402 21.2397 8.91868 14.9988 14.6602 9.25651C17.3752 6.54144 20.4068 4.51828 23.2126 3.54262C25.6729 2.69041 27.6565 2.7715 28.654 3.76708C28.8943 4.00739 29.4957 3.80018 29.9937 3.30059C30.4914 2.80068 30.7007 2.2032 30.4602 1.9629L30.4601 1.96274Z" fill="#FF9B00"/>
</svg>
