<svg width="100" height="26" viewBox="0 0 100 26" fill="none" xmlns="http://www.w3.org/2000/svg">
<g clip-path="url(#clip0_3_269)">
<path d="M36.2814 13.3782C36.2814 13.7835 36.2 14.1617 36.0372 14.4589C35.8743 14.7561 35.6572 15.0263 35.413 15.2155C35.1688 15.4316 34.8703 15.5667 34.5718 15.6748C34.2733 15.7829 33.9747 15.8369 33.7034 15.8369H24.8296C24.4768 15.8369 24.2326 16.1882 24.3682 16.4854C24.4225 16.5934 24.4768 16.7285 24.5311 16.8636C24.721 17.2419 24.9924 17.6202 25.3452 17.9444C25.698 18.2686 26.105 18.5658 26.5663 18.782C27.0277 18.9982 27.5704 19.1332 28.1674 19.1332C28.5202 19.1332 28.9001 19.0792 29.2529 18.9982C29.6057 18.8901 29.9585 18.755 30.2841 18.5929C30.5012 18.4578 30.7454 18.3767 30.9625 18.3227C31.2068 18.2686 31.451 18.2416 31.7224 18.2416C32.1294 18.2416 32.4822 18.3227 32.7807 18.4578C33.1064 18.5929 33.3777 18.809 33.6491 19.0792C34.1647 19.6196 34.1376 20.4842 33.5406 20.9435C32.9435 21.4299 32.2923 21.8081 31.6138 22.1324C30.5283 22.6187 29.3615 22.8619 28.1403 22.8619C27.0005 22.8619 25.9422 22.6457 24.9381 22.2134C23.934 21.7811 23.0657 21.1867 22.3058 20.4572C21.546 19.7277 20.9761 18.836 20.5419 17.8633C20.1077 16.8636 19.8906 15.8099 19.8906 14.6751C19.8906 13.5403 20.1077 12.4865 20.5419 11.4868C20.9761 10.4871 21.5731 9.6225 22.3058 8.89299C23.0657 8.16347 23.934 7.56905 24.9381 7.13674C25.9422 6.70443 27.0005 6.48828 28.1403 6.48828C29.0901 6.48828 29.9856 6.6504 30.854 6.94761C31.7224 7.27184 32.5093 7.70414 33.2149 8.24453C33.9205 8.78491 34.5175 9.46039 35.0331 10.1899C35.5487 10.9464 35.9015 11.757 36.1457 12.5946C36.1728 12.7297 36.2 12.8648 36.2 12.9999C36.2 13.135 36.2814 13.2701 36.2814 13.3782ZM31.2339 12.4325C31.641 12.4325 31.8581 11.9732 31.6138 11.676C31.3967 11.4058 31.1525 11.1626 30.8269 10.9194C30.5012 10.7033 30.1213 10.5141 29.7142 10.352C29.28 10.1899 28.8187 10.1359 28.3031 10.1359C27.7332 10.1359 27.2176 10.2169 26.7563 10.4061C26.295 10.5952 25.8879 10.8113 25.5623 11.0815C25.2095 11.3517 24.9381 11.6489 24.721 11.9462C24.5039 12.2704 24.3682 12.5676 24.2868 12.8378C24.3411 12.7837 24.4225 12.7027 24.5582 12.6216C24.6939 12.5136 24.8838 12.4595 25.1281 12.4595H31.2339V12.4325Z" fill="url(#paint0_linear_3_269)"/>
<path d="M40.1644 0.839844C41.277 0.839844 42.1725 1.73148 42.1725 2.83926V6.81108C42.1725 7.18935 42.5796 7.4055 42.9052 7.21637C43.2037 7.02723 43.5294 6.89214 43.855 6.78406C44.4792 6.56791 45.1033 6.45983 45.7275 6.45983C46.8672 6.45983 47.9256 6.67598 48.9025 7.10829C49.8794 7.5406 50.7478 8.13502 51.4805 8.86454C52.2132 9.62107 52.7831 10.4857 53.1902 11.4854C53.5972 12.4851 53.8143 13.5389 53.8143 14.6737C53.8143 15.8085 53.5972 16.8622 53.1902 17.8619C52.7831 18.8616 52.2132 19.7262 51.4805 20.4558C50.7478 21.2123 49.9066 21.7797 48.9297 22.212C47.9527 22.6443 46.8944 22.8605 45.7818 22.8605H45.3204C45.2933 22.8605 45.2662 22.8605 45.239 22.8605C44.5877 22.7524 43.9907 22.5633 43.4751 22.3201C43.1495 22.158 42.8238 21.9959 42.5524 21.8067C42.2811 21.6176 42.0368 21.4284 41.874 21.2393C41.874 21.4555 41.8469 21.6446 41.7926 21.8337C41.7383 21.9959 41.7112 22.158 41.6569 22.266C41.6027 22.3741 41.5484 22.4822 41.5212 22.5362C41.467 22.5903 41.4398 22.6443 41.4398 22.6443H39.9202C38.9432 22.6443 38.1562 21.8608 38.1562 20.8881V2.83926C38.1563 1.73148 39.0518 0.839844 40.1644 0.839844ZM45.7275 18.8886C46.3245 18.8886 46.8672 18.7806 47.3557 18.5644C47.8442 18.3483 48.2784 18.0511 48.6583 17.6458C49.0111 17.2675 49.3096 16.8082 49.5267 16.2948C49.7438 15.7814 49.8523 15.2411 49.8523 14.6466C49.8523 14.0792 49.7438 13.5118 49.5267 12.9985C49.3096 12.4851 49.0382 12.0258 48.6583 11.6475C48.3055 11.2692 47.8713 10.972 47.3557 10.7289C46.8672 10.5127 46.3245 10.4046 45.7275 10.4046C45.0219 10.4046 44.3435 10.5667 43.7193 10.891C43.1495 11.1882 42.661 11.5665 42.2811 12.0528C42.2268 12.1339 42.1725 12.2419 42.1725 12.35V16.9162C42.1725 17.0243 42.1997 17.1324 42.2811 17.2135C42.661 17.6998 43.1495 18.0781 43.7193 18.3753C44.3435 18.7265 44.9948 18.8886 45.7275 18.8886Z" fill="url(#paint1_linear_3_269)"/>
<path d="M55.6875 14.6201C55.6875 13.4853 55.9046 12.4315 56.3388 11.4318C56.773 10.4321 57.37 9.56749 58.1027 8.81095C58.8354 8.05442 59.7309 7.48702 60.735 7.05471C61.7391 6.6224 62.7974 6.40625 63.9372 6.40625C65.0769 6.40625 66.1353 6.6224 67.1393 7.05471C68.1434 7.48702 69.0118 8.08144 69.7716 8.81095C70.5315 9.54047 71.1014 10.4321 71.5355 11.4318C71.9697 12.4315 72.1868 13.4853 72.1868 14.6201C72.1868 15.7549 71.9697 16.8086 71.5355 17.8083C71.1014 18.808 70.5043 19.6727 69.7716 20.4292C69.0118 21.1857 68.1434 21.7531 67.1393 22.1854C66.1353 22.6177 65.0769 22.8339 63.9372 22.8339C62.7974 22.8339 61.7391 22.6177 60.735 22.1854C59.7309 21.7531 58.8625 21.1587 58.1027 20.4292C57.3429 19.6727 56.773 18.808 56.3388 17.8083C55.9046 16.8086 55.6875 15.7549 55.6875 14.6201ZM59.6766 14.6471C59.6766 15.2145 59.7852 15.7819 60.0023 16.2953C60.2194 16.8086 60.5179 17.268 60.925 17.6462C61.3049 18.0245 61.7662 18.3217 62.2818 18.5379C62.7974 18.754 63.3402 18.8621 63.9372 18.8621C64.507 18.8621 65.0769 18.754 65.5925 18.5379C66.1081 18.3217 66.5695 18.0245 66.9494 17.6462C67.3293 17.268 67.6278 16.8086 67.872 16.2953C68.0891 15.7819 68.1977 15.2415 68.1977 14.6471C68.1977 14.0527 68.0891 13.5123 67.872 12.9989C67.6549 12.4856 67.3293 12.0262 66.9494 11.648C66.5695 11.2697 66.1081 10.9725 65.5925 10.7293C65.0769 10.5132 64.5342 10.4051 63.9372 10.4051C63.3673 10.4051 62.7974 10.5132 62.2818 10.7293C61.7662 10.9455 61.3049 11.2697 60.925 11.648C60.545 12.0262 60.2194 12.4856 60.0023 12.9989C59.7852 13.5123 59.6766 14.0527 59.6766 14.6471Z" fill="url(#paint2_linear_3_269)"/>
<path d="M77.4472 6.86492C77.4744 6.89193 77.5286 7.00001 77.6372 7.16213C77.7457 7.32424 77.8 7.51338 77.8271 7.75655C77.8271 7.89164 77.8543 8.02674 77.8543 8.13482C77.8543 8.26991 77.8543 8.35097 77.8543 8.45905C78.0714 8.21587 78.3156 7.9727 78.6141 7.75655C78.9126 7.54039 79.2111 7.35126 79.5639 7.18915C79.9167 7.02703 80.2695 6.89193 80.6494 6.81088C81.0293 6.72982 81.4092 6.67578 81.7891 6.67578C82.2233 6.67578 82.6847 6.72982 83.1731 6.8379C83.3902 6.89193 83.5802 6.94597 83.7973 7.00001C84.2586 7.13511 84.5571 7.62145 84.4757 8.1078C84.4214 8.37799 84.3943 8.6752 84.34 8.94539C84.2858 9.21558 84.2043 9.45876 84.0687 9.67491C83.933 9.89106 83.7702 10.0532 83.5802 10.2153C83.3902 10.3504 83.146 10.4855 82.9018 10.5395C82.6575 10.6206 82.3862 10.6476 82.1419 10.6476C82.0877 10.6476 82.0334 10.6476 82.0334 10.6476C82.0334 10.6476 81.9248 10.6476 81.762 10.6476C81.355 10.6476 80.975 10.7016 80.6223 10.7827C80.2423 10.8908 79.9167 10.9988 79.6182 11.161C79.3197 11.3231 79.0483 11.5122 78.8312 11.7284C78.5056 12.0256 78.2885 12.4309 78.2071 12.8632C78.1528 13.0793 78.1528 13.2685 78.1257 13.4576V20.8338C78.1257 21.9416 77.2301 22.8332 76.1175 22.8332C75.0049 22.8332 74.1094 21.9416 74.1094 20.8338V7.35126C74.1094 7.08107 74.3265 6.86492 74.5978 6.86492H77.4472Z" fill="url(#paint3_linear_3_269)"/>
<path d="M88.6002 10.1085C88.3831 9.97343 88.1661 9.81131 87.949 9.67622C87.7047 9.54112 87.5962 9.21689 87.8133 8.97372C88.0304 8.70353 87.9218 8.83862 87.9761 8.78459C88.1118 8.62247 88.3017 8.43334 88.4917 8.21718C88.6817 8.02805 88.9259 7.83892 89.1701 7.6768C89.7671 7.27151 90.4456 6.9743 91.1511 6.78517C91.8567 6.59603 92.6437 6.46094 93.5121 6.46094C94.4347 6.46094 95.2488 6.56901 95.9273 6.78517C96.6057 7.00132 97.2027 7.29853 97.664 7.6768C98.1525 8.05507 98.5324 8.5144 98.8309 9.02776C99.1294 9.54112 99.3737 10.1085 99.5365 10.7029C99.6993 11.3244 99.8079 11.9458 99.8893 12.6213C99.9435 13.2968 99.9707 13.9723 99.9707 14.6748V21.6727C99.9707 22.2131 99.5365 22.6454 98.9937 22.6454H97.2027C96.8771 22.6454 96.5514 22.4563 96.4429 22.1321C96.3343 21.9159 96.28 21.6998 96.28 21.4836C95.9815 21.6998 95.683 21.8889 95.3302 22.051C94.9775 22.2131 94.5975 22.3752 94.2447 22.4833C93.8648 22.5914 93.4849 22.6995 93.1321 22.7535C92.7794 22.8075 92.4266 22.8346 92.1281 22.8346C91.2868 22.8346 90.527 22.7265 89.8214 22.4833C89.1158 22.2401 88.5188 21.9159 88.0032 21.4566C87.4876 21.0243 87.0806 20.4839 86.8092 19.8624C86.5107 19.241 86.375 18.5655 86.375 17.809C86.375 16.1068 87.0263 14.8099 88.356 13.8642C89.6857 12.9185 91.6396 12.4592 94.2447 12.4592C94.6518 12.4592 95.0046 12.4862 95.3031 12.5132C95.6016 12.5403 95.8187 12.5673 95.9273 12.5943C95.8458 11.7837 95.6016 11.1623 95.1945 10.7029C94.7875 10.2436 94.2176 10.0275 93.4849 10.0275C93.0236 10.0275 92.6437 10.0545 92.3723 10.1355C92.1009 10.2166 91.8567 10.2977 91.6396 10.3787C91.4225 10.4598 91.2325 10.5408 91.0426 10.6219C90.7712 10.73 90.3913 10.757 89.9028 10.7029C89.8485 10.7029 89.8214 10.6759 89.7671 10.6759C89.3601 10.5138 88.953 10.3247 88.6002 10.1085ZM92.1281 19.3221C92.6979 19.3221 93.3492 19.214 94.0548 19.0249C94.6518 18.8627 95.2488 18.6196 95.7916 18.3494C95.9544 18.2683 96.0629 18.1062 96.0629 17.9171V16.458C96.0629 16.2149 95.873 15.9987 95.6016 15.9717C95.4931 15.9717 95.3845 15.9717 95.276 15.9447C94.8689 15.9176 94.4347 15.9176 93.9462 15.9176C93.4306 15.9176 92.9693 15.9717 92.508 16.0527C92.0738 16.1338 91.6939 16.2419 91.3682 16.404C90.9069 16.6201 90.5541 16.9174 90.3913 17.2956C90.3642 17.3497 90.337 17.4037 90.337 17.4848C90.2556 18.0792 90.4184 18.5385 90.7983 18.9168C91.0969 19.1599 91.531 19.3221 92.1281 19.3221Z" fill="url(#paint4_linear_3_269)"/>
<path d="M13.2937 25.0472C13.1309 24.6419 13.2937 24.1826 13.4023 23.8313C14.5691 19.9135 18.5854 14.1585 1.19059 3.62099C0.647846 3.29676 0.213654 2.7834 0.0779686 2.16196C-0.274813 0.729941 0.837806 -0.729094 4.22994 0.405711C4.31135 0.43273 4.44703 0.486768 4.52844 0.540807L11.2856 3.62099C12.3439 4.10734 13.7008 3.67503 14.3249 2.70234C15.8175 0.324653 21.1363 2.18898 17.6899 7.13348C16.5501 8.37636 16.2245 10.1326 16.7944 11.6997C18.1512 15.4013 19.6166 22.8316 15.139 25.3174C15.1662 25.3174 13.7279 26.209 13.2937 25.0472Z" fill="url(#paint5_linear_3_269)"/>
<path d="M15.1618 25.3167C15.1618 25.3167 13.7507 26.2083 13.2894 25.0465C13.1266 24.6412 13.2894 24.1818 13.3979 23.8306C14.0221 21.7501 15.4604 19.1293 13.995 15.5357C13.7236 14.8873 13.3708 14.2118 12.9095 13.4823C12.8552 13.4012 12.8009 13.3472 12.7467 13.2661C12.3396 12.6717 11.8511 12.0502 11.2812 11.4288C11.634 9.88871 12.9909 8.75391 14.6462 8.75391C15.3789 8.75391 16.0574 8.99708 16.6272 9.37535C16.4916 10.1319 16.5458 10.9425 16.8443 11.699C17.0886 12.3745 17.3328 13.158 17.5499 14.0226C18.4997 17.9404 18.8254 23.2902 15.1618 25.3167Z" fill="url(#paint6_linear_3_269)"/>
<path d="M17.4489 18.8328C17.4489 18.6707 17.4218 18.5085 17.4218 18.3464C17.4218 18.3194 17.4218 18.2924 17.4218 18.2654C17.4218 18.1573 17.3946 18.0492 17.3946 17.9411C17.3946 17.9411 17.3946 17.9411 17.3946 17.9141C17.3946 17.8601 17.3675 17.806 17.3675 17.752C17.3404 17.6169 17.3132 17.4818 17.2861 17.3467C17.2861 17.2927 17.2589 17.2386 17.2589 17.1846C17.2589 17.1306 17.2318 17.0765 17.2047 17.0225C17.2047 16.9955 17.1775 16.9685 17.1775 16.9414C17.0961 16.6712 17.0147 16.4281 16.9062 16.1579C16.879 16.1038 16.8519 16.0228 16.8248 15.9687C16.7705 15.8337 16.7162 15.6986 16.6619 15.5905C16.6348 15.5635 16.6348 15.5094 16.6077 15.4824C16.5805 15.4284 16.5805 15.4013 16.5534 15.3473C16.5262 15.2933 16.4991 15.2662 16.4991 15.2122C16.472 15.1582 16.4448 15.1312 16.4448 15.0771C16.4177 15.0231 16.3906 14.9961 16.3906 14.942C16.3634 14.888 16.3363 14.861 16.3092 14.8069C16.2549 14.7259 16.2006 14.6448 16.1735 14.5367C16.1192 14.4557 16.0649 14.3746 16.0106 14.2665C15.9835 14.2125 15.9564 14.1855 15.9292 14.1314C15.875 14.0504 15.8207 13.9423 15.7664 13.8613C15.7664 13.8342 15.7393 13.8342 15.7393 13.8072C15.7121 13.7532 15.6579 13.6991 15.6307 13.6451C15.4679 13.4289 15.3051 13.1858 15.1423 12.9696C14.8438 12.5914 14.5181 12.1861 14.1653 11.8078C13.5954 11.1864 12.9442 10.5379 12.1843 9.8354C10.2305 8.07915 7.57102 6.13377 4.07035 3.99926C3.5276 3.67503 3.09341 3.16166 2.95773 2.54022C2.74063 1.59455 3.12055 0.675902 4.36885 0.43273C4.34172 0.43273 4.31458 0.405711 4.28744 0.405711C0.841038 -0.729094 -0.271581 0.729941 0.0540631 2.16196C0.189748 2.7834 0.623941 3.29676 1.16668 3.62099C6.02421 6.56608 9.22638 9.15992 11.2617 11.4025C11.5873 11.7808 11.8858 12.132 12.1843 12.4833C12.2115 12.5373 12.2657 12.5914 12.2929 12.6454C12.4557 12.8615 12.5914 13.0507 12.7271 13.2668C12.7542 13.3209 12.8085 13.3749 12.8356 13.4289C12.8356 13.456 12.8627 13.456 12.8627 13.483L12.9442 13.6181C13.0527 13.8072 13.1613 13.9693 13.2698 14.1314C13.2969 14.1855 13.3241 14.2125 13.3512 14.2665C13.3784 14.3206 13.4055 14.3476 13.4326 14.4016C13.4598 14.4557 13.4869 14.4827 13.514 14.5367C13.5412 14.5908 13.5683 14.6178 13.5683 14.6718C13.5954 14.7259 13.6226 14.7529 13.6226 14.8069C13.6497 14.861 13.6769 14.888 13.6769 14.942C13.7311 15.0771 13.7854 15.1852 13.8397 15.3203C13.8668 15.3743 13.8668 15.4013 13.894 15.4554C13.9211 15.5094 13.9211 15.5364 13.9482 15.5905C13.9754 15.6445 14.0025 15.7256 14.0296 15.7796C14.0839 15.9147 14.1382 16.0768 14.1925 16.2119C14.2196 16.266 14.2196 16.293 14.2467 16.347C14.2467 16.374 14.2739 16.4011 14.2739 16.4281C14.2739 16.4821 14.301 16.5091 14.301 16.5632C14.301 16.5632 14.301 16.5632 14.301 16.5902C14.301 16.6172 14.3281 16.6442 14.3281 16.6712C14.3281 16.6712 14.3281 16.6712 14.3281 16.6983C14.3553 16.7523 14.3553 16.8063 14.3553 16.8334C14.3824 16.8874 14.3824 16.9414 14.3824 16.9955C14.3824 17.0225 14.3824 17.0225 14.3824 17.0495V17.0765C14.3824 17.1306 14.4096 17.1846 14.4096 17.2386C14.4096 17.2657 14.4096 17.2927 14.4367 17.3197C14.4638 17.4008 14.4638 17.5088 14.491 17.5899C14.5181 17.698 14.5181 17.8331 14.5452 17.9411C14.5452 17.9682 14.5452 17.9952 14.5452 18.0222C14.5452 18.0762 14.5452 18.1303 14.5452 18.1573C14.5452 18.1843 14.5452 18.2384 14.5452 18.2654C14.5452 18.2924 14.5452 18.3194 14.5452 18.3464C14.5452 18.4005 14.5452 18.4545 14.5452 18.4815C14.5452 18.9949 14.5181 19.5083 14.4367 19.9946C14.4096 20.1027 14.4096 20.2378 14.3824 20.3459C14.3824 20.3999 14.3553 20.4539 14.3553 20.508C14.301 20.8052 14.2196 21.0754 14.1382 21.3456C14.0839 21.5077 14.0296 21.6968 13.9754 21.8589C13.7583 22.5884 13.4869 23.2369 13.2969 23.8583C13.2698 23.9394 13.2427 24.0475 13.2155 24.1556C13.1884 24.2366 13.1884 24.2906 13.1613 24.3717C13.107 24.6149 13.107 24.8581 13.1884 25.0742C13.2427 25.2363 13.3241 25.3444 13.4055 25.4255L13.4326 25.4525L13.4598 25.4795C13.4869 25.5065 13.514 25.5065 13.5412 25.5335C13.5412 25.5335 13.5683 25.5335 13.5683 25.5605C13.5954 25.5605 13.5954 25.5876 13.6226 25.5876H13.6497C13.6769 25.5876 13.6769 25.6146 13.704 25.6146H13.7311C13.7583 25.6146 13.7583 25.6146 13.7854 25.6416C13.8125 25.6686 13.8125 25.6416 13.8397 25.6416C13.8668 25.6416 13.894 25.6416 13.894 25.6416C14.0025 25.6416 14.1111 25.6416 14.2467 25.6146C14.2739 25.6146 14.301 25.6146 14.3281 25.5876C14.5181 25.5335 14.7081 25.4525 14.8438 25.3984C14.8709 25.3984 14.8709 25.3714 14.898 25.3714C14.9794 25.3174 15.0337 25.2904 15.0337 25.2904C15.1694 25.2093 15.3051 25.1282 15.4408 25.0472C15.495 25.0202 15.5493 24.9661 15.6036 24.9391C15.6579 24.9121 15.685 24.8851 15.7393 24.831C15.7935 24.777 15.8478 24.723 15.9292 24.6959C15.9564 24.6689 15.9835 24.6419 16.0106 24.6419C16.0106 24.6149 16.0106 24.5879 16.0378 24.5608C16.0378 24.5338 16.0378 24.5068 16.0649 24.4798C16.0921 24.3717 16.1192 24.2636 16.1463 24.1826C16.3363 23.5611 16.5805 22.9127 16.8248 22.1832V22.1561C16.8519 22.0481 16.879 21.94 16.9062 21.8589C16.9604 21.6968 17.0147 21.5347 17.0419 21.3456C17.069 21.2915 17.069 21.2375 17.069 21.1834C17.0961 21.1294 17.0961 21.0754 17.0961 21.0213C17.1233 20.9133 17.1504 20.8052 17.1775 20.6701C17.2047 20.562 17.2318 20.4269 17.2318 20.3188C17.2318 20.2648 17.2589 20.2108 17.2589 20.1297C17.2589 20.0757 17.2861 20.0216 17.2861 19.9406C17.2861 19.8865 17.2861 19.8325 17.3132 19.7514C17.3132 19.6974 17.3132 19.6434 17.3132 19.6163C17.3132 19.5893 17.3132 19.5623 17.3132 19.5353C17.3132 19.5083 17.3132 19.4812 17.3132 19.4542C17.3132 19.4272 17.3132 19.4002 17.3132 19.3461C17.3132 19.2921 17.3132 19.2381 17.3132 19.184C17.3132 19.13 17.3132 19.0489 17.3132 18.9949C17.4489 18.9409 17.4489 18.8868 17.4489 18.8328Z" fill="#1B75BC"/>
</g>
<defs>
<linearGradient id="paint0_linear_3_269" x1="18.5654" y1="14.8811" x2="142.563" y2="11.6658" gradientUnits="userSpaceOnUse">
<stop stop-color="#1B75BC"/>
<stop offset="0.2442" stop-color="#1C78BE"/>
<stop offset="0.4215" stop-color="#1E81C5"/>
<stop offset="0.5777" stop-color="#2291D0"/>
<stop offset="0.7209" stop-color="#28A7DF"/>
<stop offset="0.7405" stop-color="#29ABE2"/>
</linearGradient>
<linearGradient id="paint1_linear_3_269" x1="18.5052" y1="12.4656" x2="142.502" y2="9.25035" gradientUnits="userSpaceOnUse">
<stop stop-color="#1B75BC"/>
<stop offset="0.2442" stop-color="#1C78BE"/>
<stop offset="0.4215" stop-color="#1E81C5"/>
<stop offset="0.5777" stop-color="#2291D0"/>
<stop offset="0.7209" stop-color="#28A7DF"/>
<stop offset="0.7405" stop-color="#29ABE2"/>
</linearGradient>
<linearGradient id="paint2_linear_3_269" x1="18.5923" y1="15.7979" x2="142.589" y2="12.5826" gradientUnits="userSpaceOnUse">
<stop stop-color="#1B75BC"/>
<stop offset="0.2442" stop-color="#1C78BE"/>
<stop offset="0.4215" stop-color="#1E81C5"/>
<stop offset="0.5777" stop-color="#2291D0"/>
<stop offset="0.7209" stop-color="#28A7DF"/>
<stop offset="0.7405" stop-color="#29ABE2"/>
</linearGradient>
<linearGradient id="paint3_linear_3_269" x1="18.6011" y1="16.2949" x2="142.598" y2="13.0797" gradientUnits="userSpaceOnUse">
<stop stop-color="#1B75BC"/>
<stop offset="0.2442" stop-color="#1C78BE"/>
<stop offset="0.4215" stop-color="#1E81C5"/>
<stop offset="0.5777" stop-color="#2291D0"/>
<stop offset="0.7209" stop-color="#28A7DF"/>
<stop offset="0.7405" stop-color="#29ABE2"/>
</linearGradient>
<linearGradient id="paint4_linear_3_269" x1="18.6072" y1="16.5465" x2="142.604" y2="13.3312" gradientUnits="userSpaceOnUse">
<stop stop-color="#1B75BC"/>
<stop offset="0.2442" stop-color="#1C78BE"/>
<stop offset="0.4215" stop-color="#1E81C5"/>
<stop offset="0.5777" stop-color="#2291D0"/>
<stop offset="0.7209" stop-color="#28A7DF"/>
<stop offset="0.7405" stop-color="#29ABE2"/>
</linearGradient>
<linearGradient id="paint5_linear_3_269" x1="-0.00344251" y1="12.825" x2="18.8346" y2="12.825" gradientUnits="userSpaceOnUse">
<stop stop-color="#1B75BC"/>
<stop offset="0.2442" stop-color="#1C78BE"/>
<stop offset="0.4215" stop-color="#1E81C5"/>
<stop offset="0.5777" stop-color="#2291D0"/>
<stop offset="0.7209" stop-color="#28A7DF"/>
<stop offset="0.7405" stop-color="#29ABE2"/>
</linearGradient>
<linearGradient id="paint6_linear_3_269" x1="15.064" y1="27.0967" x2="14.6658" y2="13.2834" gradientUnits="userSpaceOnUse">
<stop offset="0.5027" stop-color="#2BB673"/>
<stop offset="0.6061" stop-color="#2BB677" stop-opacity="0.7921"/>
<stop offset="0.6989" stop-color="#2BB581" stop-opacity="0.6054"/>
<stop offset="0.7878" stop-color="#2AB394" stop-opacity="0.4268"/>
<stop offset="0.8741" stop-color="#2AB0AE" stop-opacity="0.2532"/>
<stop offset="0.9579" stop-color="#29ADCE" stop-opacity="0.0847222"/>
<stop offset="1" stop-color="#29ABE2" stop-opacity="0"/>
</linearGradient>
<clipPath id="clip0_3_269">
<rect width="100" height="25" fill="white" transform="translate(0 0.273438)"/>
</clipPath>
</defs>
</svg>
