<svg width="28" height="28" viewBox="0 0 28 28" fill="none" xmlns="http://www.w3.org/2000/svg">
<path d="M24.654 0.679688H1.53171C0.75521 0.679688 0.09375 1.34115 0.09375 2.1464V4.76348C0.09375 5.56874 0.75521 6.2302 1.53171 6.2302H24.654C25.4593 6.2302 26.092 5.56874 26.1208 4.76348V2.17516C26.1208 1.34115 25.4593 0.679688 24.654 0.679688ZM24.654 15.2031H1.53171C1.15784 15.2031 0.783969 15.3468 0.525137 15.6344C0.237546 15.922 0.09375 16.2671 0.09375 16.6698V19.2868C0.09375 20.0921 0.75521 20.7536 1.53171 20.7536H24.654C25.4593 20.7536 26.092 20.1209 26.1208 19.2868V16.6698C26.092 15.8357 25.4593 15.2031 24.654 15.2031ZM14.5596 22.4503H1.53171C1.15784 22.4503 0.783969 22.5941 0.525137 22.8817C0.266305 23.1693 0.09375 23.5144 0.09375 23.9171V26.5341C0.09375 27.3394 0.75521 28.0009 1.53171 28.0009H14.5308C15.3361 28.0009 15.9688 27.3394 15.9688 26.5629V23.9458C15.9975 23.0831 15.3648 22.4216 14.5596 22.4503ZM26.1208 7.92699H1.53171C1.15784 7.92699 0.783969 8.07078 0.525137 8.35837C0.266305 8.64597 0.09375 8.99108 0.09375 9.3937V12.0108C0.09375 12.816 0.75521 13.4775 1.53171 13.4775H26.092C26.8973 13.4775 27.53 12.816 27.53 12.0108V9.3937C27.5587 8.58845 26.8973 7.95575 26.1208 7.92699Z" fill="#00C3F7"/>
</svg>
